<svg xmlns="http://www.w3.org/2000/svg" width="1920" height="1260" viewBox="0 0 1920 1260">
  <defs>
    <style>
      .cls-1 {
        fill: #080808;
        fill-rule: evenodd;
      }
    </style>
  </defs>
  <path id="Color_Fill_1" data-name="Color Fill 1" class="cls-1" d="M0,0H1920V769l-162-1c21.82-51.21-27.97-102.825-72-108q-36.99,8-74,16-2.505-29-5-58l-185-13-387,11q4.995,77.493,10,155L0,784V0ZM1667,699c44.88-.339,50.06,18.751,61,52-16.09,31.258-35.41,40.36-65,58-7.94,4.732-23.14,19.211-30,12-32.28-14.558.89-100.982,18-116Q1659,702,1667,699Z"/>
</svg>
